<mxfile host="65bd71144e">
    <diagram id="NZdcNl4x1GJ7TCmzKKfH" name="Page-1">
        <mxGraphModel dx="576" dy="294" grid="1" gridSize="10" guides="1" tooltips="1" connect="1" arrows="1" fold="1" page="1" pageScale="1" pageWidth="827" pageHeight="1169" math="0" shadow="0">
            <root>
                <mxCell id="0"/>
                <mxCell id="1" parent="0"/>
                <mxCell id="2" value="&lt;font face=&quot;Comic Sans MS&quot;&gt;tower1&lt;/font&gt;" style="rounded=0;whiteSpace=wrap;html=1;" vertex="1" parent="1">
                    <mxGeometry x="250" y="380" width="100" height="40" as="geometry"/>
                </mxCell>
                <mxCell id="8" style="edgeStyle=none;html=1;entryX=0.996;entryY=0.702;entryDx=0;entryDy=0;fontFamily=Comic Sans MS;exitX=-0.006;exitY=0.702;exitDx=0;exitDy=0;exitPerimeter=0;entryPerimeter=0;" edge="1" parent="1" source="3" target="4">
                    <mxGeometry relative="1" as="geometry"/>
                </mxCell>
                <mxCell id="3" value="&lt;font face=&quot;Comic Sans MS&quot;&gt;func Tower&lt;/font&gt;" style="rounded=0;whiteSpace=wrap;html=1;" vertex="1" parent="1">
                    <mxGeometry x="340" y="260" width="100" height="40" as="geometry"/>
                </mxCell>
                <mxCell id="7" style="edgeStyle=none;html=1;entryX=0;entryY=0.25;entryDx=0;entryDy=0;fontFamily=Comic Sans MS;exitX=1;exitY=0.25;exitDx=0;exitDy=0;" edge="1" parent="1" source="4" target="3">
                    <mxGeometry relative="1" as="geometry">
                        <Array as="points"/>
                    </mxGeometry>
                </mxCell>
                <mxCell id="4" value="&lt;font face=&quot;Comic Sans MS&quot;&gt;Tower的原型&lt;br&gt;{ constructor: Tower }&lt;/font&gt;" style="rounded=0;whiteSpace=wrap;html=1;" vertex="1" parent="1">
                    <mxGeometry x="120" y="260" width="150" height="40" as="geometry"/>
                </mxCell>
                <mxCell id="5" value="" style="endArrow=classic;html=1;fontFamily=Comic Sans MS;exitX=0.5;exitY=0;exitDx=0;exitDy=0;entryX=0.5;entryY=1;entryDx=0;entryDy=0;" edge="1" parent="1" source="2" target="4">
                    <mxGeometry width="50" height="50" relative="1" as="geometry">
                        <mxPoint x="300" y="330" as="sourcePoint"/>
                        <mxPoint x="350" y="280" as="targetPoint"/>
                    </mxGeometry>
                </mxCell>
                <mxCell id="6" value="[[prototype]]" style="text;html=1;align=center;verticalAlign=middle;resizable=0;points=[];autosize=1;strokeColor=none;fillColor=none;fontFamily=Comic Sans MS;" vertex="1" parent="1">
                    <mxGeometry x="160" y="340" width="90" height="20" as="geometry"/>
                </mxCell>
                <mxCell id="9" value="prototype" style="text;html=1;align=center;verticalAlign=middle;resizable=0;points=[];autosize=1;strokeColor=none;fillColor=none;fontFamily=Comic Sans MS;" vertex="1" parent="1">
                    <mxGeometry x="270" y="290" width="70" height="20" as="geometry"/>
                </mxCell>
                <mxCell id="10" value="constructor" style="text;html=1;align=center;verticalAlign=middle;resizable=0;points=[];autosize=1;strokeColor=none;fillColor=none;fontFamily=Comic Sans MS;" vertex="1" parent="1">
                    <mxGeometry x="265" y="240" width="80" height="20" as="geometry"/>
                </mxCell>
                <mxCell id="12" style="edgeStyle=none;html=1;fontFamily=Comic Sans MS;exitX=-0.006;exitY=0.702;exitDx=0;exitDy=0;exitPerimeter=0;" edge="1" parent="1" source="13">
                    <mxGeometry relative="1" as="geometry">
                        <mxPoint x="280" y="908" as="targetPoint"/>
                    </mxGeometry>
                </mxCell>
                <mxCell id="13" value="&lt;font face=&quot;Comic Sans MS&quot;&gt;func Tower&lt;/font&gt;" style="rounded=0;whiteSpace=wrap;html=1;" vertex="1" parent="1">
                    <mxGeometry x="345" y="880" width="100" height="40" as="geometry"/>
                </mxCell>
                <mxCell id="14" style="edgeStyle=none;html=1;entryX=0;entryY=0.25;entryDx=0;entryDy=0;fontFamily=Comic Sans MS;exitX=1;exitY=0.5;exitDx=0;exitDy=0;" edge="1" parent="1" source="15" target="13">
                    <mxGeometry relative="1" as="geometry">
                        <Array as="points"/>
                    </mxGeometry>
                </mxCell>
                <mxCell id="15" value="&lt;span style=&quot;font-family: &amp;#34;comic sans ms&amp;#34;&quot;&gt;&amp;nbsp; &amp;nbsp;&amp;nbsp;&lt;/span&gt;&lt;font face=&quot;Comic Sans MS&quot;&gt;{ &lt;br&gt;&amp;nbsp; &amp;nbsp; &amp;nbsp; &amp;nbsp; constructor: Tower,&lt;br&gt;&amp;nbsp; &amp;nbsp; &amp;nbsp; &amp;nbsp; fire: f() &lt;br&gt;&amp;nbsp; &amp;nbsp; }&lt;/font&gt;" style="rounded=0;whiteSpace=wrap;html=1;align=left;" vertex="1" parent="1">
                    <mxGeometry x="110" y="850" width="170" height="80" as="geometry"/>
                </mxCell>
                <mxCell id="18" value="prototype" style="text;html=1;align=center;verticalAlign=middle;resizable=0;points=[];autosize=1;strokeColor=none;fillColor=none;fontFamily=Comic Sans MS;" vertex="1" parent="1">
                    <mxGeometry x="280" y="910" width="70" height="20" as="geometry"/>
                </mxCell>
                <mxCell id="19" value="constructor" style="text;html=1;align=center;verticalAlign=middle;resizable=0;points=[];autosize=1;strokeColor=none;fillColor=none;fontFamily=Comic Sans MS;" vertex="1" parent="1">
                    <mxGeometry x="275" y="860" width="80" height="20" as="geometry"/>
                </mxCell>
                <mxCell id="23" style="edgeStyle=none;html=1;entryX=0.5;entryY=1;entryDx=0;entryDy=0;fontFamily=Comic Sans MS;" edge="1" parent="1" source="20" target="21">
                    <mxGeometry relative="1" as="geometry"/>
                </mxCell>
                <mxCell id="20" value="&lt;font face=&quot;Comic Sans MS&quot;&gt;child&lt;/font&gt;" style="rounded=0;whiteSpace=wrap;html=1;" vertex="1" parent="1">
                    <mxGeometry x="250" y="710" width="70" height="40" as="geometry"/>
                </mxCell>
                <mxCell id="24" style="edgeStyle=none;html=1;entryX=0.5;entryY=1;entryDx=0;entryDy=0;fontFamily=Comic Sans MS;" edge="1" parent="1" source="21" target="22">
                    <mxGeometry relative="1" as="geometry"/>
                </mxCell>
                <mxCell id="21" value="&lt;font face=&quot;Comic Sans MS&quot;&gt;parent&lt;/font&gt;" style="rounded=0;whiteSpace=wrap;html=1;" vertex="1" parent="1">
                    <mxGeometry x="250" y="640" width="70" height="40" as="geometry"/>
                </mxCell>
                <mxCell id="22" value="&lt;font face=&quot;Comic Sans MS&quot;&gt;grandparent&lt;/font&gt;" style="rounded=0;whiteSpace=wrap;html=1;" vertex="1" parent="1">
                    <mxGeometry x="240" y="570" width="90" height="40" as="geometry"/>
                </mxCell>
                <mxCell id="25" value="[[prototype]]" style="text;html=1;align=center;verticalAlign=middle;resizable=0;points=[];autosize=1;strokeColor=none;fillColor=none;fontFamily=Comic Sans MS;" vertex="1" parent="1">
                    <mxGeometry x="290" y="610" width="90" height="20" as="geometry"/>
                </mxCell>
                <mxCell id="26" value="[[prototype]]" style="text;html=1;align=center;verticalAlign=middle;resizable=0;points=[];autosize=1;strokeColor=none;fillColor=none;fontFamily=Comic Sans MS;" vertex="1" parent="1">
                    <mxGeometry x="290" y="680" width="90" height="20" as="geometry"/>
                </mxCell>
                <mxCell id="27" value="&lt;font style=&quot;font-size: 18px&quot;&gt;&lt;b&gt;原型链&lt;/b&gt;&lt;/font&gt;" style="text;html=1;align=center;verticalAlign=middle;resizable=0;points=[];autosize=1;strokeColor=none;fillColor=none;fontFamily=Comic Sans MS;" vertex="1" parent="1">
                    <mxGeometry x="250" y="460" width="70" height="20" as="geometry"/>
                </mxCell>
                <mxCell id="28" style="edgeStyle=none;html=1;entryX=0.5;entryY=1;entryDx=0;entryDy=0;fontFamily=Comic Sans MS;" edge="1" parent="1" target="29">
                    <mxGeometry relative="1" as="geometry">
                        <mxPoint x="285" y="570" as="sourcePoint"/>
                    </mxGeometry>
                </mxCell>
                <mxCell id="29" value="&lt;font face=&quot;Comic Sans MS&quot;&gt;Object.prototype&lt;/font&gt;" style="rounded=0;whiteSpace=wrap;html=1;" vertex="1" parent="1">
                    <mxGeometry x="230" y="500" width="110" height="40" as="geometry"/>
                </mxCell>
                <mxCell id="30" value="[[prototype]]" style="text;html=1;align=center;verticalAlign=middle;resizable=0;points=[];autosize=1;strokeColor=none;fillColor=none;fontFamily=Comic Sans MS;" vertex="1" parent="1">
                    <mxGeometry x="290" y="540" width="90" height="20" as="geometry"/>
                </mxCell>
                <mxCell id="31" value="" style="endArrow=none;dashed=1;html=1;dashPattern=1 3;strokeWidth=2;fontFamily=Comic Sans MS;fontSize=18;" edge="1" parent="1">
                    <mxGeometry width="50" height="50" relative="1" as="geometry">
                        <mxPoint x="80" y="440" as="sourcePoint"/>
                        <mxPoint x="520" y="440" as="targetPoint"/>
                    </mxGeometry>
                </mxCell>
                <mxCell id="32" value="&lt;span style=&quot;font-size: 18px&quot;&gt;&lt;b&gt;实例对象，构造函数和原型之间的关系&lt;/b&gt;&lt;/span&gt;" style="text;html=1;align=center;verticalAlign=middle;resizable=0;points=[];autosize=1;strokeColor=none;fillColor=none;fontFamily=Comic Sans MS;" vertex="1" parent="1">
                    <mxGeometry x="125" y="190" width="320" height="20" as="geometry"/>
                </mxCell>
                <mxCell id="33" value="" style="endArrow=none;dashed=1;html=1;dashPattern=1 3;strokeWidth=2;fontFamily=Comic Sans MS;fontSize=18;" edge="1" parent="1">
                    <mxGeometry width="50" height="50" relative="1" as="geometry">
                        <mxPoint x="85" y="780" as="sourcePoint"/>
                        <mxPoint x="525" y="780" as="targetPoint"/>
                    </mxGeometry>
                </mxCell>
                <mxCell id="40" value="&lt;span style=&quot;font-size: 18px&quot;&gt;&lt;b&gt;继承&lt;/b&gt;&lt;/span&gt;" style="text;html=1;align=center;verticalAlign=middle;resizable=0;points=[];autosize=1;strokeColor=none;fillColor=none;fontFamily=Comic Sans MS;" vertex="1" parent="1">
                    <mxGeometry x="270" y="800" width="50" height="20" as="geometry"/>
                </mxCell>
                <mxCell id="41" value="" style="group" vertex="1" connectable="0" parent="1">
                    <mxGeometry x="110" y="980" width="340" height="80" as="geometry"/>
                </mxCell>
                <mxCell id="34" style="edgeStyle=none;html=1;fontFamily=Comic Sans MS;exitX=-0.006;exitY=0.702;exitDx=0;exitDy=0;exitPerimeter=0;" edge="1" parent="41" source="35">
                    <mxGeometry relative="1" as="geometry">
                        <mxPoint x="170" y="58" as="targetPoint"/>
                    </mxGeometry>
                </mxCell>
                <mxCell id="35" value="&lt;font face=&quot;Comic Sans MS&quot;&gt;func IceTower&lt;/font&gt;" style="rounded=0;whiteSpace=wrap;html=1;" vertex="1" parent="41">
                    <mxGeometry x="235" y="30" width="105" height="40" as="geometry"/>
                </mxCell>
                <mxCell id="36" style="edgeStyle=none;html=1;entryX=0;entryY=0.25;entryDx=0;entryDy=0;fontFamily=Comic Sans MS;exitX=1;exitY=0.5;exitDx=0;exitDy=0;" edge="1" parent="41" source="37" target="35">
                    <mxGeometry relative="1" as="geometry">
                        <Array as="points"/>
                    </mxGeometry>
                </mxCell>
                <mxCell id="37" value="&lt;span style=&quot;font-family: &amp;#34;comic sans ms&amp;#34;&quot;&gt;&amp;nbsp; &amp;nbsp;&amp;nbsp;&lt;/span&gt;&lt;font face=&quot;Comic Sans MS&quot;&gt;{ &lt;br&gt;&amp;nbsp; &amp;nbsp; &amp;nbsp; &amp;nbsp; constructor: IceTower,&lt;br&gt;&amp;nbsp; &amp;nbsp; &amp;nbsp; &amp;nbsp; freeze: f() &lt;br&gt;&amp;nbsp; &amp;nbsp; }&lt;/font&gt;" style="rounded=0;whiteSpace=wrap;html=1;align=left;" vertex="1" parent="41">
                    <mxGeometry width="170" height="80" as="geometry"/>
                </mxCell>
                <mxCell id="38" value="prototype" style="text;html=1;align=center;verticalAlign=middle;resizable=0;points=[];autosize=1;strokeColor=none;fillColor=none;fontFamily=Comic Sans MS;" vertex="1" parent="41">
                    <mxGeometry x="170" y="60" width="70" height="20" as="geometry"/>
                </mxCell>
                <mxCell id="39" value="constructor" style="text;html=1;align=center;verticalAlign=middle;resizable=0;points=[];autosize=1;strokeColor=none;fillColor=none;fontFamily=Comic Sans MS;" vertex="1" parent="41">
                    <mxGeometry x="165" y="10" width="80" height="20" as="geometry"/>
                </mxCell>
                <mxCell id="42" style="edgeStyle=none;html=1;entryX=0.5;entryY=1;entryDx=0;entryDy=0;fontFamily=Comic Sans MS;fontSize=18;" edge="1" parent="1" source="37" target="15">
                    <mxGeometry relative="1" as="geometry"/>
                </mxCell>
                <mxCell id="43" value="&lt;font style=&quot;font-size: 12px&quot;&gt;[[prototype]]&lt;/font&gt;" style="text;html=1;align=center;verticalAlign=middle;resizable=0;points=[];autosize=1;strokeColor=none;fillColor=none;fontSize=18;fontFamily=Comic Sans MS;" vertex="1" parent="1">
                    <mxGeometry x="190" y="940" width="90" height="30" as="geometry"/>
                </mxCell>
                <mxCell id="44" value="&lt;font face=&quot;Comic Sans MS&quot;&gt;tower1&lt;/font&gt;" style="rounded=0;whiteSpace=wrap;html=1;" vertex="1" parent="1">
                    <mxGeometry x="265" y="1110" width="100" height="40" as="geometry"/>
                </mxCell>
                <mxCell id="45" value="" style="endArrow=classic;html=1;fontFamily=Comic Sans MS;exitX=0.5;exitY=0;exitDx=0;exitDy=0;entryX=0.5;entryY=1;entryDx=0;entryDy=0;" edge="1" parent="1" source="44">
                    <mxGeometry width="50" height="50" relative="1" as="geometry">
                        <mxPoint x="300" y="1090" as="sourcePoint"/>
                        <mxPoint x="195" y="1060" as="targetPoint"/>
                    </mxGeometry>
                </mxCell>
                <mxCell id="46" value="[[prototype]]" style="text;html=1;align=center;verticalAlign=middle;resizable=0;points=[];autosize=1;strokeColor=none;fillColor=none;fontFamily=Comic Sans MS;" vertex="1" parent="1">
                    <mxGeometry x="170" y="1080" width="90" height="20" as="geometry"/>
                </mxCell>
            </root>
        </mxGraphModel>
    </diagram>
</mxfile>